<?xml version="1.0" encoding="UTF-8"?>
<svg version="1.1" viewBox="0 0 2048 738" width="1280" height="1280" xmlns="http://www.w3.org/2000/svg">
<path transform="translate(349,146)" d="m0 0h346l16 21 8 11 13 17 12 16 16 21 18 24 16 21 14 19 13 17 24 32 10 13 6 8-1 4-14 19-16 21-11 15-30 40-14 19-10 13-14 19-36 48-14 19-6 8h-347l-23-3-27-7-16-6-25-12-16-10-17-13-12-11-13-13-9-11-11-16-9-15-10-21-7-20-4-15-4-21-1-15v-29l2-18 4-21 6-19 6-16 8-16 10-17 10-14 7-9h2l2-4 19-19 14-11 10-7 15-9 15-8 27-10 19-5 19-3zm249 53-1 81-244 1-14 3-13 5-11 6-14 12-9 11-8 14-6 17-1 6v26l3 12 4 11 5 10 9 12 11 11 14 9 14 6 13 3 6 1h242v78l5-5 14-19 13-18 12-16 13-18 12-16 10-14 10-13 10-14 13-18 11-15-2-4-10-14-14-19-39-54-14-19-11-15-8-11-12-17-12-16z" fill="#FEFEFE"/>
<path transform="translate(1457,389)" d="m0 0h92l15 2 15 4 14 6 14 9 12 11 8 10 6 10 7 18 3 16v30l-4 18-5 13-8 14-11 13-12 10-11 7-15 6-18 4-5 1h-97zm57 49v103h31l9-2 14-7 9-9 6-12 3-13v-17l-4-15-5-9-7-8-10-6-11-4-5-1z" fill="#FEFEFE"/>
<path transform="translate(1110,389)" d="m0 0h99l14 2 13 4 11 6 9 7 8 9 6 12 3 10 1 4v21l-3 11-4 10-7 9-8 8-14 8-8 2 8 14 14 24 15 26 8 14v1h-63l-8-14-15-28-14-26-3-5-6-1v74h-56zm57 47-1 1v41h35l9-4 5-6 2-5v-11l-5-10-6-4-6-2z" fill="#FEFEFE"/>
<path transform="translate(907,389)" d="m0 0h57v85l4-5 13-18 8-11 12-17 14-19 10-14 1-1h65l-4 7-12 15-21 28-10 13-12 16-10 13-4 7 14 18 10 14 14 18 14 19 24 32v2h-68l-20-28-13-18-12-17-13-18-4-5v83l-1 3h-56z" fill="#FEFEFE"/>
<path transform="translate(1493,149)" d="m0 0h65l4 8 7 20 14 38 8 23 10 27 8 23 4 10 10 27 7 20 1 6h-59l-4-10-7-21v-2l-71 1-3 9-8 23h-59l1-6 16-44 4-12 4-10 9-24 7-20 8-21 7-20 4-12 4-10 8-22zm32 62-4 10-15 47-2 7h43l-3-10-14-43-4-11z" fill="#FEFEFE"/>
<path transform="translate(977,147)" d="m0 0h31l16 3 16 6 14 8 13 12 7 8 8 13 5 12 3 10v3h-61l-6-9-2-4-4-2-6-4-9-3h-20l-12 5-10 9-6 12-3 12-1 7v9l3 16 4 10 6 8 7 6 11 5h22l11-5 8-6 7-11h61l-2 9-5 14-6 11-8 10-12 12-13 8-11 5-13 4-12 2h-30l-15-3-15-5-13-7-13-10-11-13-8-13-5-12-5-21-1-23 2-21 5-17 8-16 8-11 13-13 14-9 14-6 10-3z" fill="#FEFEFE"/>
<path transform="translate(1272,149)" d="m0 0h99l15 3 10 4 8 4 10 8 7 8 8 16 3 13v22l-4 15-7 13-8 9-11 8-13 6-16 4-8 1h-36v68h-57zm57 45-1 43 1 1h27l9-3 7-6 3-11-1-10-5-8-8-5-5-1z" fill="#FEFEFE"/>
<path transform="translate(1298,389)" d="m0 0h130v45h-73v33h64v43h-64v36h73v45h-130z" fill="#FEFEFE"/>
<path transform="translate(1113,149)" d="m0 0h129v45h-73v33h64l1 8v26l-1 9h-64v36h73v45h-129z" fill="#FEFEFE"/>
<path transform="translate(1613,149)" d="m0 0h163l1 3v30l-1 12h-54l1 4v142l-1 11h-56v-157h-51l-2-1z" fill="#FEFEFE"/>
<path transform="translate(1740,389)" d="m0 0h164v45h-54l1 148-1 9h-56v-157h-53l-1-1z" fill="#FEFEFE"/>
<path transform="translate(1667,389)" d="m0 0h56l1 5v188l-1 9h-56z" fill="#FEFEFE"/>
</svg>
