<?xml version="1.0" encoding="UTF-8"?>
<svg version="1.1" xmlns="http://www.w3.org/2000/svg" width="4579" height="1159">
<path d="M0 0 C4.48864354 -0.00380634 8.9772761 -0.01324829 13.46591242 -0.02190423 C22.34952927 -0.03812463 31.23314531 -0.04901914 40.11677193 -0.05818284 C47.50450477 -0.06595553 54.89223157 -0.07603758 62.27995946 -0.08757764 C63.34876613 -0.08924572 64.4175728 -0.0909138 65.51876755 -0.09263242 C67.69890306 -0.09604145 69.87903856 -0.09945298 72.05917406 -0.10286694 C101.43569822 -0.14839579 130.81223526 -0.17900533 160.18878056 -0.20702917 C161.39144849 -0.20818416 162.59411641 -0.20933914 163.83322882 -0.21052913 C211.46685162 -0.25623854 259.10048001 -0.29582224 306.73411744 -0.32255408 C318.51758925 -0.32917715 330.30106091 -0.33605067 342.08453252 -0.34301549 C344.03750265 -0.34416027 344.03750265 -0.34416027 346.02992673 -0.34532818 C388.29983632 -0.37030468 430.56964793 -0.42383634 472.8395065 -0.49303376 C516.30871932 -0.5640651 559.77787936 -0.60920219 603.24715089 -0.62053485 C609.38087018 -0.62213977 615.51458937 -0.62402735 621.64830853 -0.62607938 C622.85545623 -0.62647227 624.06260394 -0.62686515 625.30633187 -0.62726994 C644.75427315 -0.63433527 664.20207658 -0.66856933 683.649965 -0.71274039 C703.17538114 -0.75646967 722.70064643 -0.7710479 742.22610704 -0.75564713 C753.83375714 -0.74736828 765.44088213 -0.76150932 777.04844729 -0.80736647 C784.79405542 -0.83577905 792.53930916 -0.83533961 800.28493072 -0.81110159 C804.70311183 -0.79810864 809.12029131 -0.79795946 813.53837577 -0.83286716 C817.5555978 -0.86435936 821.57102105 -0.85920693 825.58820122 -0.82448405 C827.0343189 -0.81846378 828.48056978 -0.82593607 829.92652617 -0.84835687 C840.65698161 -1.00408648 840.65698161 -1.00408648 844.60276961 1.87112487 C846.40184687 3.88734532 847.83692715 5.88602118 849.27081181 8.17187708 C850.32384735 9.57776757 851.38413515 10.978281 852.45440556 12.37109583 C853.54213798 13.86493943 854.62664619 15.36113479 855.70831181 16.85937708 C860.85832357 23.92159115 866.08559049 30.91680375 871.39581181 37.85937708 C876.53075993 44.57506098 881.63773459 51.30912383 886.69756962 58.08154505 C890.81018004 63.57743791 894.9766257 69.03133535 899.14581181 74.48437708 C904.29905279 81.2263812 909.3850966 88.01083393 914.39581181 94.85937708 C918.92204819 101.04437987 923.54131597 107.14091452 928.27081181 113.17187708 C933.00031144 119.20284448 937.61943185 125.29947622 942.14581181 131.48437708 C949.71278001 141.82228786 957.48325822 151.99961809 965.27081181 162.17187708 C973.74383018 173.23950395 982.16477976 184.33541178 990.40850712 195.5751974 C994.79480268 201.54829249 999.2814757 207.43148541 1003.81866337 213.29101771 C1012.8199155 224.94966706 1021.69612555 236.69625827 1030.40704228 248.57324427 C1034.79387118 254.54695866 1039.28097632 260.43084048 1043.81866337 266.29101771 C1052.8199155 277.94966706 1061.69612555 289.69625827 1070.40704228 301.57324427 C1074.79387118 307.54695866 1079.28097632 313.43084048 1083.81866337 319.29101771 C1092.8199155 330.94966706 1101.69612555 342.69625827 1110.40704228 354.57324427 C1114.79387118 360.54695866 1119.28097632 366.43084048 1123.81866337 372.29101771 C1132.8199155 383.94966706 1141.69612555 395.69625827 1150.40704228 407.57324427 C1154.79387118 413.54695866 1159.28097632 419.43084048 1163.81866337 425.29101771 C1172.8199155 436.94966706 1181.69612555 448.69625827 1190.40704228 460.57324427 C1194.79387118 466.54695866 1199.28097632 472.43084048 1203.81866337 478.29101771 C1212.8199155 489.94966706 1221.69612555 501.69625827 1230.40704228 513.57324427 C1234.79387118 519.54695866 1239.28097632 525.43084048 1243.81866337 531.29101771 C1252.35405881 542.3462777 1260.80322797 553.47041618 1269.14581181 564.67187708 C1269.73459111 565.45449915 1270.32337041 566.23712122 1270.9299915 567.04345911 C1272.42243206 569.05891816 1273.85802707 571.10016288 1275.27081181 573.17187708 C1275.84831181 573.99687708 1276.42581181 574.82187708 1277.02081181 575.67187708 C1277.47508759 580.21463489 1274.10939608 583.25882855 1271.39581181 586.67187708 C1270.760304 587.5013888 1270.12479619 588.33090052 1269.47003056 589.18554896 C1268.11209626 590.95509883 1266.74626888 592.71861451 1265.37335087 594.47656458 C1262.6429079 597.97680732 1259.95657366 601.50962802 1257.26983525 605.04345911 C1255.92894291 606.80653275 1254.58581502 608.56790824 1253.24053837 610.3276388 C1246.46720296 619.19048121 1239.86055722 628.17216764 1233.27081181 637.17187708 C1225.36100507 647.97441315 1217.36974098 658.70309657 1209.23223759 669.3354513 C1204.85035986 675.07047825 1200.53551716 680.8492885 1196.27081181 686.67187708 C1190.68418761 694.29927725 1184.97804843 701.82832273 1179.23174931 709.33593958 C1174.266849 715.83439984 1169.39953108 722.39838403 1164.56866337 728.99682826 C1160.12600079 735.04967221 1155.58702544 741.02435668 1151.02081181 746.98437708 C1146.67965078 752.65245903 1142.37666844 758.33068191 1138.27081181 764.17187708 C1133.50760426 770.94825227 1128.47175223 777.50768144 1123.43487431 784.08203333 C1118.98356956 789.90040546 1114.59832941 795.76095481 1110.27081181 801.67187708 C1104.68436422 809.29940398 1098.97804535 816.82832676 1093.23174931 824.33593958 C1088.26462353 830.83731271 1083.39539216 837.40442979 1078.56207158 844.00561732 C1074.18298575 849.97146319 1069.7100392 855.86069468 1065.20831181 861.73437708 C1060.29659437 868.14585557 1055.46886978 874.60219938 1050.77081181 881.17187708 C1045.41872003 888.65614361 1039.87937668 895.98260673 1034.28253056 903.28515833 C1029.88136001 909.03534668 1025.54860256 914.82941362 1021.27081181 920.67187708 C1015.68432751 928.29937749 1009.97804594 935.82832598 1004.23174931 943.33593958 C999.26462353 949.83731271 994.39539216 956.40442979 989.56207158 963.00561732 C985.18298575 968.97146319 980.7100392 974.86069468 976.20831181 980.73437708 C971.29659437 987.14585557 966.46886978 993.60219938 961.77081181 1000.17187708 C956.41872003 1007.65614361 950.87937668 1014.98260673 945.28253056 1022.28515833 C940.88136001 1028.03534668 936.54860256 1033.82941362 932.27081181 1039.67187708 C926.68432751 1047.29937749 920.97804594 1054.82832598 915.23174931 1062.33593958 C910.85016856 1068.07090436 906.53538224 1073.84947271 902.27081181 1079.67187708 C897.34516154 1086.39685166 892.33714949 1093.05226701 887.27081181 1099.67187708 C880.41282518 1108.63646868 873.68472621 1117.68875337 867.01495244 1126.7939474 C863.4339642 1131.67620179 859.83467636 1136.54500991 856.23907353 1141.41650599 C855.70556279 1142.14015345 855.17205205 1142.86380091 854.62237431 1143.60937708 C854.10402958 1144.28985068 853.58568486 1144.97032428 853.05163271 1145.6714183 C851.2096262 1148.16095449 851.2096262 1148.16095449 849.70658897 1150.97590242 C847.11606055 1155.30491187 845.1133135 1158.56478922 840.18707151 1160.187942 C836.32791508 1160.57680064 832.54648222 1160.61318895 828.67658784 1160.53098982 C827.18095016 1160.53973974 825.68533434 1160.55331652 824.18977879 1160.57126704 C820.07321459 1160.60666531 815.95961309 1160.5734668 811.84323981 1160.52920793 C807.36749185 1160.49321143 802.89207016 1160.52108555 798.4162844 1160.540892 C790.56924144 1160.56678774 782.72310024 1160.55176038 774.87613751 1160.51005381 C763.20651801 1160.44820256 751.53750013 1160.449328 739.86775554 1160.46334832 C720.23023312 1160.48511171 700.59310182 1160.45532545 680.95567013 1160.39603823 C661.48884361 1160.33737854 642.02218443 1160.30063418 622.55526807 1160.2934038 C621.34449072 1160.29293791 620.13371338 1160.29247203 618.88624582 1160.29199202 C612.73663235 1160.28972589 606.58701882 1160.28782936 600.43740519 1160.28606107 C556.84994503 1160.27272488 513.26270395 1160.20686365 469.67535283 1160.11157435 C427.40516839 1160.01922864 385.13508327 1159.95535107 342.86480595 1159.92700404 C341.56434609 1159.92612338 340.26388623 1159.92524271 338.92401849 1159.92433537 C328.46071772 1159.91726198 317.99741687 1159.91030347 307.53411589 1159.90355208 C262.28577476 1159.87431713 217.03745482 1159.82378572 171.7891402 1159.76738346 C164.49050114 1159.75830579 157.19186177 1159.74958049 149.89322194 1159.74114408 C123.08290233 1159.71006672 96.27261679 1159.67232833 69.46234203 1159.61352501 C58.88047964 1159.59040841 48.29863373 1159.56996265 37.71675183 1159.5583288 C28.93056266 1159.5486397 20.14441816 1159.53223295 11.35825899 1159.50710654 C6.94587575 1159.49465701 2.5335437 1159.48500648 -1.87885832 1159.48411003 C-28.25969758 1159.47550313 -54.58214162 1158.79155256 -80.79168819 1155.48437708 C-81.44499111 1155.403287 -82.09829402 1155.32219691 -82.771394 1155.23864954 C-161.1587001 1145.41028941 -236.49430455 1119.49415994 -358.72918819 1043.17187708 C-359.91537914 1042.27863867 -361.10157555 1041.3854075 -362.28778194 1040.49218958 C-368.88917518 1035.45829135 -375.28366302 1030.23966767 -381.58856319 1024.83984583 C-384.548355 1022.30978952 -387.57047614 1019.86293773 -390.60418819 1017.42187708 C-394.2792783 1014.43287471 -397.68732761 1011.34703497 -400.9672253 1007.93286341 C-402.63286573 1006.26814615 -404.35181281 1004.75606342 -406.15106319 1003.23828333 C-411.55455448 998.54099704 -416.57892805 993.47191287 -421.62933467 988.40210169 C-423.28846139 986.73761431 -424.9528687 985.07854262 -426.61786006 983.41992396 C-432.19935088 977.84187201 -437.60975722 972.18109457 -442.72918819 966.17187708 C-444.14242369 964.62706448 -445.55859228 963.08492384 -446.97918819 961.54687708 C-451.52641269 956.50722894 -455.69441248 951.22416844 -459.85028194 945.86328333 C-461.75305829 943.410744 -463.681203 940.98278062 -465.63934444 938.57422083 C-526.66121973 863.51388035 -567.14732886 769.75218651 -587.25653194 522.37402552 C-578.24675996 436.08659165 -551.09263466 352.25736207 -505.72918819 278.17187708 C-505.2087292 277.31819544 -504.68827022 276.4645138 -504.15203975 275.58496302 C-497.12913973 264.11764054 -489.62191053 253.05539895 -481.72918819 242.17187708 C-481.16409541 241.38748255 -480.59900264 240.60308802 -480.01678584 239.79492396 C-473.39428346 230.61376903 -466.66019267 221.62837185 -459.23700069 213.07812708 C-456.85843088 210.32165367 -454.56888183 207.51224765 -452.29168819 204.67187708 C-448.04081883 199.4476423 -443.51845285 194.51826228 -438.91668819 189.60547083 C-436.39415212 186.91097158 -433.93698932 184.16334338 -431.48309444 181.40625208 C-426.71132925 176.09335373 -421.72695266 171.02141157 -416.66668819 165.98437708 C-415.82041866 165.13424036 -414.97414913 164.28410365 -414.10223506 163.40820521 C-409.69290296 159.00567239 -405.21792008 154.74986849 -400.49163936 150.68921107 C-398.08143548 148.61421216 -395.75262594 146.45480403 -393.41668819 144.29687708 C-388.01421299 139.37610406 -382.42681238 134.74487219 -376.72918819 130.17187708 C-375.59720032 129.24798259 -374.46571332 128.32347419 -373.33465694 127.39843958 C-350.2845232 108.63256653 -325.44658139 92.04471865 -299.72918819 77.17187708 C-299.03857295 76.76872279 -298.34795772 76.36556849 -297.63641475 75.9501974 C-265.28654887 57.14576499 -231.10865003 42.26134143 -195.72918819 30.17187708 C-194.76223018 29.83736536 -193.79527217 29.50285365 -192.79901241 29.15820521 C-147.18873319 13.49422313 -98.77949261 4.45422269 -50.72918819 1.17187708 C-49.65383223 1.08899488 -48.57847627 1.00611269 -47.47053377 0.92071891 C-31.66593255 -0.14532724 -15.83221659 0.00966822 0 0 Z M591.27081181 137.17187708 C591.27081181 207.79187708 591.27081181 278.41187708 591.27081181 351.17187708 C572.79661259 351.16140345 554.32241337 351.15092982 535.28838994 351.1401388 C522.94972627 351.13343893 510.61106265 351.12677303 498.27239873 351.12057703 C497.09644957 351.11998503 497.09644957 351.11998503 495.89674386 351.11938107 C469.4899805 351.10612325 443.08321679 351.09562511 416.67645146 351.0871908 C415.81418598 351.08691469 414.9519205 351.08663858 414.06352576 351.08635409 C395.32117255 351.08036735 376.57881924 351.07482712 357.83646576 351.06974642 C348.64433369 351.0672519 339.45220165 351.06465877 330.26006962 351.0620138 C329.34537443 351.06175228 328.43067923 351.06149077 327.488266 351.06122132 C297.87590563 351.05270876 268.26355292 351.03769373 238.65119719 351.01928264 C208.20373395 351.00038686 177.75627494 350.98809911 147.30880593 350.9840471 C143.00174323 350.98347085 138.69468053 350.98281958 134.38761784 350.9821226 C133.5399816 350.98198775 132.69234536 350.98185291 131.81902317 350.98171397 C118.21099981 350.97935666 104.6029896 350.97009713 90.9949716 350.95821302 C77.29217607 350.946395 63.5893935 350.94195197 49.88659306 350.94487433 C41.75988778 350.94638778 33.63323018 350.94240946 25.50653357 350.930282 C19.41434615 350.9218174 13.3222038 350.92399831 7.23001452 350.93007929 C4.78276528 350.93091737 2.33551189 350.92844163 -0.11172931 350.92211072 C-19.92950387 350.87386929 -40.03468773 351.192947 -59.47918819 355.42187708 C-60.50447627 355.63658656 -61.52976436 355.85129603 -62.58612178 356.07251185 C-77.78197069 359.35870543 -92.48608549 363.92522741 -106.72918819 370.17187708 C-107.38951045 370.45756556 -108.04983272 370.74325404 -108.73016475 371.03759974 C-143.95573672 386.42281298 -176.22375756 411.96434661 -198.72918819 443.17187708 C-199.49231319 444.21343958 -200.25543819 445.25500208 -201.04168819 446.32812708 C-224.21106389 478.82961244 -237.9714522 515.59357927 -242.72918819 555.17187708 C-242.86067256 556.18250208 -242.99215694 557.19312708 -243.12762569 558.23437708 C-249.34853344 616.0720059 -230.18353401 675.79798771 -194.27215694 721.07031458 C-190.00421054 726.33602657 -185.41898531 731.28476533 -180.72918819 736.17187708 C-180.14395381 736.78966029 -179.55871944 737.40744349 -178.95575069 738.0439474 C-153.97298776 764.30953891 -123.02495004 783.51652424 -88.72918819 795.17187708 C-87.90064327 795.45402064 -87.07209834 795.73616419 -86.218446 796.02685755 C-76.89561058 799.13997281 -67.5139647 801.60140408 -57.85418819 803.42187708 C-56.67288326 803.64859095 -56.67288326 803.64859095 -55.46771358 803.8798849 C-36.68250659 807.15588005 -17.70919926 807.46127699 1.30215336 807.41238612 C3.86201804 807.41326022 6.42188254 807.41501495 8.98174609 807.41756445 C14.50670894 807.42167212 20.0316283 807.41849347 25.55658604 807.41028803 C33.77174022 807.39812151 41.98686751 807.39762529 50.20202906 807.39937201 C64.02721483 807.40198833 77.85238136 807.39536089 91.67756154 807.3833372 C105.35245112 807.37147488 119.02733268 807.36379962 132.70222737 807.36163157 C133.98094339 807.36142535 133.98094339 807.36142535 135.28549205 807.36121497 C139.61536262 807.36053823 143.94523319 807.35993549 148.27510378 807.35936121 C178.88809914 807.35516816 209.50108405 807.34171521 240.11407353 807.32275599 C269.84128651 807.30436669 299.56849662 807.29020949 329.29571416 807.28174036 C330.21315902 807.28147731 331.13060389 807.28121426 332.07585011 807.28094324 C341.28979281 807.27830604 350.50373553 807.27575443 359.71767827 807.27326552 C378.48503356 807.26819404 397.25238867 807.26255154 416.0197437 807.25656336 C416.88250449 807.25628878 417.74526529 807.2560142 418.63417036 807.2557313 C445.06150383 807.24729057 471.48883554 807.23643118 497.91616704 807.22317713 C498.66599333 807.22280202 499.41581962 807.2224269 500.18836792 807.22204042 C530.54918336 807.20681506 560.90999741 807.18902368 591.27081181 807.17187708 C591.27081181 874.82187708 591.27081181 942.47187708 591.27081181 1012.17187708 C595.01543957 1008.42724932 597.74498141 1005.3095534 600.70831181 1001.04687708 C601.58584543 999.79721416 602.46483348 998.54857169 603.34503056 997.30078333 C603.81473271 996.63449915 604.28443486 995.96821497 604.76837041 995.28174036 C607.47373876 991.48261893 610.2487741 987.73498444 613.02081181 983.98437708 C613.61305546 983.18241908 614.20529912 982.38046107 614.81548955 981.5542013 C616.02881611 979.91172964 617.24244091 978.26947825 618.45635869 976.62744349 C621.39875856 972.64538511 624.33458661 968.6584894 627.27081181 964.67187708 C630.77968397 959.90804981 634.28978986 955.14515907 637.80596806 950.38672083 C643.54504663 942.61587834 649.255108 934.82699012 654.89581181 926.98437708 C659.44077058 920.66550879 664.06762455 914.41646876 668.75616337 908.20361536 C673.00811595 902.55522912 677.14895528 896.83090835 681.27691533 891.09155482 C686.95637496 883.20196586 692.72755478 875.38118959 698.50469853 867.56299036 C701.43037284 863.60196546 704.35031487 859.63671991 707.27081181 855.67187708 C708.43745072 854.08852329 709.60411739 852.50518996 710.77081181 850.92187708 C711.34831181 850.13812708 711.92581181 849.35437708 712.52081181 848.54687708 C717.77081181 841.42187708 717.77081181 841.42187708 719.52105595 839.04663294 C720.68701987 837.46419523 721.85287285 835.88167577 723.01861455 834.29907435 C725.94512625 830.32635822 728.87358715 826.35510714 731.80596806 822.38672083 C737.5004578 814.67648251 743.16964124 806.9502412 748.77081181 799.17187708 C754.95182444 790.58828439 761.21866848 782.06986459 767.50469853 773.56299036 C770.43037284 769.60196546 773.35031487 765.63671991 776.27081181 761.67187708 C777.43745072 760.08852329 778.60411739 758.50518996 779.77081181 756.92187708 C780.34831181 756.13812708 780.92581181 755.35437708 781.52081181 754.54687708 C786.77081181 747.42187708 786.77081181 747.42187708 788.52105595 745.04663294 C789.68701987 743.46419523 790.85287285 741.88167577 792.01861455 740.29907435 C794.94512625 736.32635822 797.87358715 732.35510714 800.80596806 728.38672083 C806.54504663 720.61587834 812.255108 712.82699012 817.89581181 704.98437708 C822.44077058 698.66550879 827.06762455 692.41646876 831.75616337 686.20361536 C836.00811595 680.55522912 840.14895528 674.83090835 844.27691533 669.09155482 C849.95637496 661.20196586 855.72755478 653.38118959 861.50469853 645.56299036 C864.43037284 641.60196546 867.35031487 637.63671991 870.27081181 633.67187708 C871.43745072 632.08852329 872.60411739 630.50518996 873.77081181 628.92187708 C874.34831181 628.13812708 874.92581181 627.35437708 875.52081181 626.54687708 C877.27081181 624.17187708 879.02081181 621.79687708 880.77081181 619.42187708 C881.34895634 618.63724085 881.92710087 617.85260462 882.52276494 617.04419154 C883.68287672 615.46977726 884.84303257 613.89539545 886.00323369 612.32104701 C889.02056259 608.22652489 892.03699493 604.13134648 895.05206181 600.03515833 C895.674679 599.18953333 896.29729619 598.34390833 896.93878056 597.47265833 C898.11875572 595.8700055 899.29846417 594.26715625 900.47784306 592.66406458 C901.01796025 591.93058802 901.55807744 591.19711146 902.11456181 590.44140833 C902.63147587 589.7306515 903.14838994 589.01989466 903.68096806 588.28759974 C904.77324055 586.83403196 905.90923811 585.4126255 907.07940556 584.02099818 C908.6470211 582.12146404 910.06646354 580.3200303 911.27081181 578.17187708 C911.1657529 575.47784743 911.1657529 575.47784743 909.27081181 573.17187708 C908.72432988 572.38417933 908.72432988 572.38417933 908.16680791 571.58056849 C906.80858076 569.67778653 905.39082735 567.83182658 903.95831181 565.98437708 C902.86575498 564.55185838 901.77466082 563.11822318 900.68487431 561.68359583 C900.1205872 560.94157923 899.55630009 560.19956263 898.97491337 559.43506068 C896.20807054 555.76047141 893.51872546 552.0311913 890.83331181 548.29687708 C890.29335576 547.54696497 889.7533997 546.79705286 889.19708134 546.02441615 C887.55398612 543.74095761 885.91236836 541.45644191 884.27081181 539.17187708 C877.65134872 529.96994186 871.00616338 520.7894475 864.27081181 511.67187708 C856.9913856 501.81779887 849.82250857 491.88613375 842.66631962 481.9423849 C836.57842431 473.48594672 830.4621244 465.05298799 824.27081181 456.67187708 C816.9913856 446.81779887 809.82250857 436.88613375 802.66631962 426.9423849 C796.57842431 418.48594672 790.4621244 410.05298799 784.27081181 401.67187708 C776.9913856 391.81779887 769.82250857 381.88613375 762.66631962 371.9423849 C756.57842431 363.48594672 750.4621244 355.05298799 744.27081181 346.67187708 C736.9913856 336.81779887 729.82250857 326.88613375 722.66631962 316.9423849 C716.57842431 308.48594672 710.4621244 300.05298799 704.27081181 291.67187708 C698.08070063 283.2923925 691.96606873 274.86080346 685.87969853 266.4057638 C683.18069063 262.65827939 680.47549687 258.91526508 677.77081181 255.17187708 C674.52949728 250.68577329 671.28939227 246.19882878 668.05596806 241.70703333 C662.50276557 233.99724736 656.91643976 226.31430077 651.27081181 218.67187708 C643.9913856 208.81779887 636.82250857 198.88613375 629.66631962 188.9423849 C628.05615673 186.70577564 626.4450922 184.46982099 624.83331181 182.23437708 C624.30028447 181.49509974 623.76725712 180.7558224 623.21807744 179.99414271 C618.67873343 173.71099308 614.0737716 167.47746774 609.45977666 161.24902552 C604.83754672 154.98983708 600.33845283 148.64963712 595.9131458 142.24975794 C594.72262516 140.54045606 593.50021734 138.85342826 592.27081181 137.17187708 C591.94081181 137.17187708 591.61081181 137.17187708 591.27081181 137.17187708 Z " fill="#FFFFFF" transform="translate(589.7291881879792,-0.17187708336859941)"/>
<path d="M0 0 C240.11446088 0 240.11446088 0 265.375 4.25 C266.02669159 4.35637787 266.67838318 4.46275574 267.349823 4.57235718 C295.54158359 9.18612382 322.2983558 17.52209945 348 30 C348.71816895 30.34611328 349.43633789 30.69222656 350.17626953 31.04882812 C370.3256406 40.88325142 388.27772309 53.93275105 404.7890625 69.01171875 C406.55080083 70.5960382 408.33088787 72.09390998 410.1875 73.5625 C413.13354394 76.11573808 415.57879619 78.8237524 418.09765625 81.7890625 C420.09069748 84.10541021 422.1668239 86.32707752 424.25 88.5625 C434.75062191 100.25556542 443.15212873 113.42972259 451 127 C451.39960938 127.68787598 451.79921875 128.37575195 452.2109375 129.08447266 C488.86783479 192.97264726 492.56017148 275.03121992 473.66015625 344.99194336 C462.43723531 384.81844363 441.55830372 420.24829778 413 450 C412.51418457 450.51304687 412.02836914 451.02609375 411.52783203 451.5546875 C403.94654796 459.53871937 395.83388579 466.43948718 387 473 C386.13737549 473.64582031 386.13737549 473.64582031 385.25732422 474.3046875 C377.09585198 480.38605547 368.6708057 485.88978763 359.83837891 490.94726562 C358.10839455 491.93792864 356.3878344 492.94499742 354.66796875 493.953125 C252.74436628 551.26331062 97.04131223 527 0 527 C0 353.09 0 179.18 0 0 Z M148 128 C148 216.77 148 305.54 148 397 C232.16582044 399.03327603 232.16582044 399.03327603 300.7734375 360.328125 C324.17674339 336.54028655 333.75017644 302.6125836 335 270 C335.04125 269.01644531 335.0825 268.03289062 335.125 267.01953125 C335.9020205 229.47972846 325.80295588 192.29542736 299.64208984 164.66894531 C275.06954589 139.69453103 241.8108538 130.81757115 208 128 C188.2 128 168.4 128 148 128 Z " fill="#FFFFFF" transform="translate(3416,632)"/>
<path d="M0 0 C327.60147601 0 327.60147601 0 382 52 C382.72058594 52.65742187 383.44117187 53.31484375 384.18359375 53.9921875 C412.22336748 80.48252632 427.15057115 120.98529418 428.26394653 159.06544495 C428.32608625 162.46081139 428.33110576 165.85419921 428.3125 169.25 C428.31034485 169.9661145 428.3081897 170.682229 428.30596924 171.42004395 C428.10270109 213.7350675 413.1776913 252.29483283 383.45947266 282.55908203 C364.59369793 301.18501084 340.16609551 314.10560955 315 322 C315 325.62600435 315.96556858 327.02337664 317.7890625 330.13671875 C318.39363281 331.17634766 318.99820313 332.21597656 319.62109375 333.28710938 C320.28238281 334.40923828 320.94367187 335.53136719 321.625 336.6875 C322.31179885 337.86358157 322.99798855 339.04001906 323.68359375 340.21679688 C325.44502682 343.23703419 327.21363847 346.2530005 328.98400879 349.26800537 C331.09657046 352.86936081 333.19717775 356.47769836 335.30004883 360.0847168 C336.44234365 362.04366302 337.58542229 364.00215237 338.72924805 365.96020508 C344.89766432 376.52192273 351.00384768 387.11933753 357.10888672 397.71777344 C360.23680146 403.14659938 363.36853731 408.57322007 366.5 414 C370.26363919 420.52233275 374.02644622 427.04513762 377.78515625 433.5703125 C384.4005933 445.05164953 391.04145782 456.51725101 397.72851562 467.95703125 C402.6656963 476.40966228 407.5533659 484.89035637 412.43188477 493.37695312 C415.53188296 498.7594661 418.6569125 504.12465895 421.8359375 509.4609375 C422.44236084 510.47913574 423.04878418 511.49733398 423.67358398 512.54638672 C424.82530969 514.47490956 425.98090344 516.40112911 427.14086914 518.32470703 C427.64996826 519.17661621 428.15906738 520.02852539 428.68359375 520.90625 C429.13275146 521.65197266 429.58190918 522.39769531 430.04467773 523.16601562 C431 525 431 525 431 527 C376.55 527 322.1 527 266 527 C258.575 513.14 258.575 513.14 251 499 C246.91312589 491.40492423 242.82559946 483.81023787 238.73388672 476.21777344 C235.82129735 470.81254563 232.9107577 465.40621432 230 460 C228.83334304 457.83332811 227.66667637 455.66666144 226.5 453.5 C191.5 388.5 191.5 388.5 189.74780273 385.24584961 C188.58853803 383.09297571 187.42919638 380.94014325 186.26977539 378.78735352 C183.5599594 373.75560089 180.85086847 368.72346251 178.1446228 363.68978882 C177.19100904 361.91613566 176.23714354 360.14261811 175.28320312 358.36914062 C174.08999583 356.15065892 172.89725526 353.93192609 171.70507812 351.71289062 C170.63286142 349.71981403 169.54675339 347.73412848 168.44482422 345.75732422 C167 343 167 343 165.98095703 340.29345703 C164.94258715 337.4212967 164.94258715 337.4212967 162 334 C157.38 333.67 152.76 333.34 148 333 C148 397.02 148 461.04 148 527 C99.16 527 50.32 527 0 527 C0 353.09 0 179.18 0 0 Z M148 124 C148 159.64 148 195.28 148 232 C168.5425 232.12375 168.5425 232.12375 189.5 232.25 C193.79193359 232.28641602 198.08386719 232.32283203 202.50585938 232.36035156 C206.42144141 232.37374585 206.42144141 232.37374585 210.33703613 232.3817749 C212.05387546 232.3878363 213.77069997 232.40173196 215.48742676 232.42230225 C233.52562502 232.62725366 250.78323567 230.65224533 264.75 218 C276.24292155 205.80553566 279.05243108 190.12630309 279 174 C278.2674769 161.60136819 274.21783499 150.377282 266 141 C265.24976562 140.09314453 265.24976562 140.09314453 264.484375 139.16796875 C255.20869195 128.83413739 239.92835419 124.40332084 226.37353516 123.65344238 C221.34196838 123.49343583 216.31410236 123.54754547 211.28125 123.609375 C209.64941966 123.61527711 208.01758166 123.61934485 206.38574219 123.62158203 C200.42371049 123.64231076 194.4618423 123.6981539 188.5 123.75 C168.4525 123.87375 168.4525 123.87375 148 124 Z " fill="#FFFFFF" transform="translate(2512,632)"/>
<path d="M0 0 C48.84 0 97.68 0 148 0 C148.33 73.59 148.66 147.18 149 223 C156.77170054 212.45269213 164.4870868 201.95473312 172.0078125 191.2421875 C176.72456868 184.53550123 181.5482427 177.90557356 186.35888672 171.26611328 C189.07648173 167.513552 191.78794473 163.75656581 194.5 160 C195.58330362 158.49997854 196.66663696 156.99997854 197.75 155.5 C198.28625 154.7575 198.8225 154.015 199.375 153.25 C230.25 110.5 230.25 110.5 231.87573242 108.24902344 C232.95667191 106.75231299 234.03756401 105.25556832 235.1184082 103.75878906 C237.8629754 99.95817363 240.60841966 96.15819702 243.35546875 92.359375 C248.25345334 85.58459258 253.14744088 78.80741898 258 72 C264.51739496 62.85706385 271.10677972 53.76607414 277.68652344 44.66796875 C279.35383766 42.36221173 281.02080176 40.05620231 282.6875 37.75 C283.22979248 36.99968506 283.77208496 36.24937012 284.33081055 35.47631836 C287.14924451 31.57357557 289.95928866 27.66522635 292.74975586 23.74243164 C293.93677018 22.07664996 295.14242243 20.42417841 296.3514967 18.77433872 C298.14183071 16.28722974 299.75235386 13.76330477 301.28979206 11.1133337 C304.62994604 5.60996805 307.4927117 0.91671537 313.71152306 -1.35700798 C318.09027956 -2.0263547 322.44210331 -1.86022448 326.85424805 -1.70288086 C328.53072222 -1.69864219 330.20722416 -1.70103958 331.88368225 -1.70951843 C336.40602901 -1.71379902 340.92233054 -1.62604196 345.44327903 -1.52090907 C350.17816178 -1.42672124 354.91320501 -1.41829632 359.64888 -1.40052795 C368.60299823 -1.35402432 377.55434806 -1.23110719 386.50725061 -1.08028561 C396.70522615 -0.91224303 406.90333856 -0.83005763 417.10235536 -0.75485408 C438.06977833 -0.59833655 459.03471435 -0.33474197 480 0 C478.57778023 2.91660998 477.04406681 5.43494682 475.0859375 8.02734375 C474.49820557 8.80843506 473.91047363 9.58952637 473.30493164 10.39428711 C472.6680542 11.23354736 472.03117676 12.07280762 471.375 12.9375 C470.37617798 14.26116577 470.37617798 14.26116577 469.35717773 15.61157227 C467.24236477 18.4109604 465.12215687 21.20617585 463 24 C462.33532715 24.87527344 461.6706543 25.75054688 460.98583984 26.65234375 C457.01306758 31.87993427 453.03165551 37.10089518 449.046875 42.31933594 C436.701213 58.47623315 436.701213 58.47623315 424.46875 74.71875 C420.30289386 80.27322485 416.07453892 85.78072321 411.86328125 91.30078125 C408.39117375 95.85425806 404.92729246 100.41270086 401.5 105 C397.43217646 110.44450569 393.31049628 115.84718889 389.1875 121.25 C384.43282001 127.4811795 379.69244695 133.72180726 375 140 C369.6162364 147.20313003 364.1664166 154.35499777 358.7109375 161.50390625 C354.60300443 166.88916208 350.52266404 172.29274198 346.46875 177.71875 C342.30289386 183.27322485 338.07453892 188.78072321 333.86328125 194.30078125 C330.39117375 198.85425806 326.92729246 203.41270086 323.5 208 C319.43217637 213.44450582 315.31048822 218.84718251 311.1875 224.25 C304.41073861 233.13145412 297.68694818 242.05080069 291 251 C290.35675781 251.69996094 289.71351563 252.39992188 289.05078125 253.12109375 C287.74805076 254.97927249 287.74805076 254.97927249 288.421875 257.2421875 C290.67079283 261.17222707 293.41890384 264.59950566 296.25 268.125 C301.27729148 274.4852263 306.20755833 280.89828052 311 287.4375 C311.5779834 288.22543945 312.1559668 289.01337891 312.75146484 289.82519531 C314.50263468 292.21558839 316.2514765 294.60767073 318 297 C325.90719117 307.80439681 333.9011218 318.53128609 342.03857422 329.16357422 C347.00664488 335.66581386 351.87579599 342.23453424 356.7109375 348.8359375 C361.07277032 354.77671433 365.52054548 360.6475326 370 366.5 C375.65353395 373.88641792 381.21470194 381.33194466 386.7109375 388.8359375 C391.07277032 394.77671433 395.52054548 400.6475326 400 406.5 C405.65353395 413.88641792 411.21470194 421.33194466 416.7109375 428.8359375 C421.07277032 434.77671433 425.52054548 440.6475326 430 446.5 C435.65353395 453.88641792 441.21470194 461.33194466 446.7109375 468.8359375 C451.72814866 475.66933369 456.8661983 482.40646916 462.01928711 489.13769531 C467.16678374 495.87418817 472.22195179 502.67396046 477.22070312 509.52148438 C480.60750866 514.15191495 484.09210452 518.67848988 487.69506836 523.14355469 C489 525 489 525 489 527 C465.96481197 527.30395734 442.92995549 527.5330591 419.8931675 527.67355824 C409.19616199 527.74053515 398.5004039 527.83180971 387.80419922 527.98071289 C378.47904121 528.11046745 369.15478664 528.19419792 359.82875097 528.22315043 C354.89208755 528.24007098 349.9580081 528.27969786 345.02217484 528.37449074 C340.37067129 528.46309479 335.72280105 528.48988495 331.07053375 528.47039986 C329.36844714 528.473961 327.66623248 528.49962381 325.96487808 528.54967117 C313.47880083 528.89878275 313.47880083 528.89878275 309.34424543 525.73167777 C305.90274837 522.22264534 303.46500729 518.22708155 301 514 C299.88010121 512.36995834 298.75035697 510.74652631 297.6015625 509.13671875 C296.60637331 507.65565839 295.61418415 506.17257778 294.625 504.6875 C290.56486793 498.66946064 286.4032565 492.77171811 282 487 C277.04852202 480.50720909 272.42667215 473.83091864 267.85546875 467.06640625 C264.37054669 461.93467138 260.76119918 456.93223217 257 452 C252.6433958 446.28698605 248.5227759 440.45263321 244.5 434.5 C239.98915767 427.82794988 235.31936953 421.32544059 230.44702148 414.91357422 C226.36296067 409.52586134 222.45002337 404.03150725 218.57006836 398.49560547 C214.92453568 393.29751032 211.22681573 388.14009163 207.5 383 C202.78938833 376.49956572 198.13702179 369.96135817 193.51953125 363.39453125 C189.88545434 358.2343328 186.20328599 353.1107106 182.5 348 C177.79699149 341.50962483 173.15102377 334.9823234 168.54150391 328.42529297 C164.14276181 322.17829083 159.67384971 315.98313658 155.1875 309.79882812 C154.66929687 309.08404297 154.15109375 308.36925781 153.6171875 307.6328125 C153.15940918 307.00262207 152.70163086 306.37243164 152.22998047 305.72314453 C151.12187193 304.17073682 150.05799145 302.58698718 149 301 C148.67 375.58 148.34 450.16 148 527 C99.16 527 50.32 527 0 527 C0 353.09 0 179.18 0 0 Z " fill="#FFFFFF" transform="translate(1985,632)"/>
<path d="M0 0 C56.1 0 112.2 0 170 0 C185.68885366 42.58403136 185.68885366 42.58403136 192.82998657 62.39419556 C200.40375316 83.39959752 208.06805607 104.36931117 215.8125 125.3125 C222.31691466 142.90378572 228.71549953 160.52601309 234.95715332 178.2121582 C240.52018689 193.96431952 246.26467339 209.64537309 252.0625 225.3125 C259.75685241 246.10691152 267.33067235 266.94081665 274.8125 287.8125 C275.30532827 289.18716434 275.79815664 290.56182865 276.29098511 291.93649292 C276.78049981 293.30198069 277.27001194 294.66746937 277.75952148 296.03295898 C278.48141866 298.04668341 279.20332525 300.06040445 279.92526436 302.07411385 C280.39824879 303.39342273 280.87120402 304.71274208 281.34412956 306.03207207 C286.1930467 319.55764711 291.09517461 333.06348076 296.01611328 346.56298828 C296.6553157 348.31671637 297.29447545 350.07046 297.93359375 351.82421875 C298.25390564 352.70313782 298.57421753 353.58205688 298.90423584 354.48760986 C301.58472941 361.84814213 304.24899207 369.21449136 306.91015625 376.58203125 C315.78381196 401.14448989 324.70292264 425.68831998 333.75 450.1875 C340.09648648 467.37788525 346.42559721 484.57418897 352.67419434 501.80044556 C353.42756968 503.87667125 354.18202963 505.95250373 354.93762207 508.02792358 C355.96818716 510.85989399 356.99454802 513.69334914 358.01953125 516.52734375 C358.32464127 517.36392517 358.62975128 518.20050659 358.94410706 519.06243896 C361 524.77061514 361 524.77061514 361 527 C309.52 527 258.04 527 205 527 C191 485 191 485 177 443 C115.62 442.67 54.24 442.34 -9 442 C-9.66 444.97 -10.32 447.94 -11 451 C-11.65994583 453.21097691 -12.35566721 455.41167622 -13.09130859 457.59863281 C-13.49868256 458.81730042 -13.90605652 460.03596802 -14.32577515 461.29156494 C-14.76661672 462.59543381 -15.20750537 463.89928676 -15.6484375 465.203125 C-16.1072647 466.57144577 -16.5656402 467.93991808 -17.02359009 469.30853271 C-18.22482384 472.89521777 -19.43118947 476.48015358 -20.63897705 480.06463623 C-22.5654143 485.78452062 -24.48425959 491.50695411 -26.40254593 497.22957611 C-27.06542637 499.20451557 -27.73068046 501.17864195 -28.39633179 503.15264893 C-28.81001007 504.38392517 -29.22368835 505.61520142 -29.64990234 506.88378906 C-30.18712418 508.47855072 -30.18712418 508.47855072 -30.73519897 510.10552979 C-32.55719883 515.71568033 -34.26530544 521.36224269 -36 527 C-87.48 527 -138.96 527 -192 527 C-185.49911788 508.6793322 -178.98301108 490.38882308 -172.22631836 472.16479492 C-169.94577418 466.01177528 -167.67273887 459.85598917 -165.40234375 453.69921875 C-165.1727232 453.07659023 -164.94310265 452.45396172 -164.7065239 451.81246567 C-160.06933361 439.23269585 -155.5224824 426.62137168 -151 414 C-144.07204727 394.66716335 -137.00549912 375.38802305 -129.88720703 356.12451172 C-124.52364059 341.60666033 -119.19803218 327.07796052 -114 312.5 C-108.36179118 296.68755736 -102.56879468 280.93431341 -96.75 265.1875 C-90.0861218 247.15330511 -83.4860017 229.09893985 -77 211 C-70.07184067 191.66723619 -63.0055 172.38802543 -55.88720703 153.12451172 C-50.52364002 138.60665879 -45.19812929 124.07792687 -40 109.5 C-33.40658737 91.01010475 -26.61515078 72.59391428 -19.80859375 54.18164062 C-13.14348306 36.14270855 -6.57232839 18.07390307 0 0 Z M84 162 C70.41040933 201.09193669 57.61375754 240.45098608 44.72783661 279.77881622 C44.03113501 281.90498336 43.33424179 284.03108758 42.63726807 286.15716553 C40.04603476 294.06186688 37.45862231 301.96780783 34.875 309.875 C34.56104279 310.83465668 34.24708557 311.79431335 33.9236145 312.78305054 C33.06988311 315.39391449 32.21813438 318.0054149 31.3671875 320.6171875 C31.12168655 321.36723557 30.87618561 322.11728363 30.62324524 322.89006042 C29.48741144 325.88505689 29.48741144 325.88505689 29 329 C65.63 329 102.26 329 140 329 C137.49877721 319.80844909 137.49877721 319.80844909 134.66511536 310.75483704 C134.45020736 310.10840419 134.23529936 309.46197135 134.013879 308.79594964 C133.307414 306.67331295 132.59672805 304.5521163 131.88598633 302.4309082 C131.37297699 300.89244545 130.8602332 299.35389412 130.34773254 297.81526184 C128.96634117 293.67051771 127.58127327 289.52701084 126.19550538 285.38372827 C124.74395082 281.04163116 123.29583136 276.6983887 121.84733582 272.35527039 C119.10864975 264.14540962 116.36690838 255.93657267 113.62404794 247.72810572 C110.49952491 238.37694991 107.37843995 229.02464782 104.25763285 219.67225134 C97.84222694 200.44689623 91.42253867 181.22297339 85 162 C84.67 162 84.34 162 84 162 Z " fill="#FFFFFF" transform="translate(3509,7)"/>
<path d="M0 0 C0.59329102 0.43779785 1.18658203 0.8755957 1.79785156 1.32666016 C49.57167317 36.8477468 80.07700765 89.26004493 93 147 C93 147.66 93 148.32 93 149 C72.44249233 149.39760045 51.88562064 149.69712814 31.32504463 149.88080692 C21.7775615 149.96837188 12.23247056 150.08767569 2.68652344 150.2824707 C-5.6366258 150.45223189 -13.95804284 150.56165866 -22.28287518 150.59950441 C-26.68961507 150.62162332 -31.09140128 150.67333965 -35.4965477 150.79741096 C-62.3354706 151.52484734 -62.3354706 151.52484734 -68.41965485 147.33286667 C-72.03836637 143.3783372 -73.85645238 139.07875921 -75.33586502 133.98191643 C-76.27588638 131.17669787 -77.86706271 129.12735205 -79.75 126.875 C-80.31074219 126.19953125 -80.87148437 125.5240625 -81.44921875 124.828125 C-81.96097656 124.22484375 -82.47273438 123.6215625 -83 123 C-83.41894531 122.43796875 -83.83789062 121.8759375 -84.26953125 121.296875 C-98.06170159 103.46289038 -122.34004541 92.70643216 -144.1328125 89.34375 C-173.32162507 85.84427383 -203.27804262 90.63565476 -227 109 C-254.28876718 131.29235495 -267.60318334 163.30161652 -271.49609375 197.73046875 C-275.31881626 239.11969891 -269.4445366 283.5545944 -242.20703125 316.46875 C-223.83574466 337.53882736 -200.12455689 349.66589231 -172 352 C-140.29552464 353.84178349 -112.86953176 344.78341316 -88.7578125 324.07421875 C-83.64528911 319.27994481 -79.59962864 313.67113667 -75.58984375 307.953125 C-75.19401124 307.39344654 -74.79817873 306.83376808 -74.3903513 306.25712967 C-72.89004254 303.95143991 -72.89004254 303.95143991 -71.75690365 301.03684616 C-70.15311955 297.51550241 -68.62405248 294.85581833 -66 292 C-60.89653035 290.24601995 -55.92599907 290.4768745 -50.60961914 290.63769531 C-49.04210675 290.64108319 -47.47457533 290.63917431 -45.90707397 290.63238525 C-41.66420782 290.62894938 -37.4254335 290.69935529 -33.18351674 290.78327274 C-28.74612793 290.85842373 -24.30863926 290.86534761 -19.87071228 290.87957764 C-11.47291702 290.91683763 -3.0770022 291.01525334 5.3199659 291.13577151 C14.88195319 291.27002366 24.44403158 291.33590901 34.0067271 291.39611673 C53.67219996 291.52146113 73.33598142 291.73245229 93 292 C92.07197841 295.79305224 91.13623492 299.58416061 90.19921875 303.375 C89.93975464 304.43589844 89.68029053 305.49679687 89.41296387 306.58984375 C76.55005964 358.47917742 45.31288834 407.30397882 2 439 C0.95328125 439.76828125 -0.0934375 440.5365625 -1.171875 441.328125 C-38.30555935 467.74661685 -80.9320666 481.81190007 -126 487 C-127.33019165 487.1546875 -127.33019165 487.1546875 -128.68725586 487.3125 C-138.94531074 488.33383714 -149.2640934 488.24375219 -159.5625 488.25 C-160.56243988 488.25067474 -161.56237976 488.25134949 -162.59262085 488.25204468 C-222.68804199 488.18776122 -284.49667206 471.61937073 -331 432 C-332.10777114 431.07646082 -333.21586868 430.15331306 -334.32421875 429.23046875 C-345.65747529 419.72809988 -355.85532551 409.670651 -365 398 C-365.77859375 397.03835938 -366.5571875 396.07671875 -367.359375 395.0859375 C-404.32451758 348.58520082 -421.42210447 288.80290664 -423 230 C-423.02191406 229.26136719 -423.04382812 228.52273438 -423.06640625 227.76171875 C-424.65692148 165.51955622 -409.34152937 100.05880489 -371 50 C-370.31292969 49.10152344 -369.62585937 48.20304687 -368.91796875 47.27734375 C-364.87388865 42.11655514 -360.57857517 37.21771752 -356.15625 32.37890625 C-354.20384564 30.22489491 -352.31722641 28.02972274 -350.4375 25.8125 C-346.93209326 21.80403944 -343.06944738 18.42188038 -339 15 C-337.61361328 13.78183594 -337.61361328 13.78183594 -336.19921875 12.5390625 C-322.95147642 0.95758331 -308.71837424 -8.69271786 -293.14501953 -16.87255859 C-291.13877604 -17.92705808 -289.14553429 -19.00313883 -287.15234375 -20.08203125 C-203.90162075 -64.28872679 -83.10377939 -58.85155926 0 0 Z " fill="#FFFFFF" transform="translate(2369,50)"/>
<path d="M0 0 C280.98347477 0 280.98347477 0 325 21 C325.79100098 21.37495605 326.58200195 21.74991211 327.39697266 22.13623047 C364.29888182 39.90272012 392.7846381 71.0905202 406.609375 109.71337891 C417.15989092 140.53755721 420.72320643 174.79918775 415 207 C414.87109375 207.74330566 414.7421875 208.48661133 414.609375 209.25244141 C406.9237149 252.26189348 384.00319569 290.32594009 347.98999023 315.49194336 C287.64975921 356.04827455 218.3601847 350 148 350 C148 408.41 148 466.82 148 527 C99.16 527 50.32 527 0 527 C0 353.09 0 179.18 0 0 Z M148 119 C148 156.29 148 193.58 148 232 C165.325 232.12375 165.325 232.12375 183 232.25 C188.41986328 232.30462402 188.41986328 232.30462402 193.94921875 232.36035156 C197.25939189 232.37374972 197.25939189 232.37374972 200.56958008 232.3817749 C202.0155941 232.38781732 203.46159125 232.40167068 204.9074707 232.42230225 C222.68995267 232.66280223 239.7543591 229.48927994 253.22265625 216.90234375 C264.26170923 205.08691781 267.56803027 189.03215466 267.25390625 173.2421875 C266.49249859 163.51959737 264.89696427 153.54893763 260 145 C259.35224609 143.86498047 259.35224609 143.86498047 258.69140625 142.70703125 C250.65334523 129.70236341 239.13337171 124.55924941 224.80859375 120.796875 C215.58465644 118.8669435 206.50681287 118.86545003 197.12109375 118.90234375 C195.24750183 118.90385437 195.24750183 118.90385437 193.33605957 118.90539551 C188.70319694 118.91059829 184.07034748 118.92455941 179.4375 118.9375 C169.063125 118.958125 158.68875 118.97875 148 119 Z " fill="#FFFFFF" transform="translate(2934,7)"/>
<path d="M0 0 C111.54 0 223.08 0 338 0 C338 39.27 338 78.54 338 119 C275.3 119 212.6 119 148 119 C148 146.72 148 174.44 148 203 C203.11 203 258.22 203 315 203 C315 240.29 315 277.58 315 316 C259.89 316 204.78 316 148 316 C148 346.69 148 377.38 148 409 C210.7 409 273.4 409 338 409 C338 447.94 338 486.88 338 527 C226.46 527 114.92 527 0 527 C0 353.09 0 179.18 0 0 Z " fill="#FFFFFF" transform="translate(3002,632)"/>
<path d="M0 0 C111.54 0 223.08 0 338 0 C338 39.27 338 78.54 338 119 C275.3 119 212.6 119 148 119 C148 146.72 148 174.44 148 203 C203.11 203 258.22 203 315 203 C315 240.29 315 277.58 315 316 C259.89 316 204.78 316 148 316 C148 346.69 148 377.38 148 409 C210.7 409 273.4 409 338 409 C338 447.94 338 486.88 338 527 C226.46 527 114.92 527 0 527 C0 353.09 0 179.18 0 0 Z " fill="#FFFFFF" transform="translate(2520,7)"/>
<path d="M0 0 C140.91 0 281.82 0 427 0 C427 38.94 427 77.88 427 118 C380.47 118 333.94 118 286 118 C286 252.97 286 387.94 286 527 C237.49 527 188.98 527 139 527 C139 392.03 139 257.06 139 118 C93.13 118 47.26 118 0 118 C0 79.06 0 40.12 0 0 Z " fill="#FFFFFF" transform="translate(4152,632)"/>
<path d="M0 0 C140.91 0 281.82 0 427 0 C427 38.94 427 77.88 427 118 C380.47 118 333.94 118 286 118 C286 252.97 286 387.94 286 527 C237.49 527 188.98 527 139 527 C139 392.03 139 257.06 139 118 C93.13 118 47.26 118 0 118 C0 79.06 0 40.12 0 0 Z " fill="#FFFFFF" transform="translate(3820,7)"/>
<path d="M0 0 C48.84 0 97.68 0 148 0 C148 173.91 148 347.82 148 527 C99.16 527 50.32 527 0 527 C0 353.09 0 179.18 0 0 Z " fill="#FFFFFF" transform="translate(3961,632)"/>
</svg>
