<?xml version="1.0" encoding="UTF-8"?>
<!DOCTYPE svg PUBLIC "-//W3C//DTD SVG 1.1//EN" "http://www.w3.org/Graphics/SVG/1.1/DTD/svg11.dtd">
<svg xmlns="http://www.w3.org/2000/svg" version="1.1" width="473px" height="471px" style="shape-rendering:geometricPrecision; text-rendering:geometricPrecision; image-rendering:optimizeQuality; fill-rule:evenodd; clip-rule:evenodd" xmlns:xlink="http://www.w3.org/1999/xlink">
<g><path style="opacity:1" fill="#1d1c1c" d="M -0.5,-0.5 C 157.167,-0.5 314.833,-0.5 472.5,-0.5C 472.5,-0.166667 472.5,0.166667 472.5,0.5C 315.167,0.5 157.833,0.5 0.5,0.5C 0.5,157.167 0.5,313.833 0.5,470.5C 0.166667,470.5 -0.166667,470.5 -0.5,470.5C -0.5,313.5 -0.5,156.5 -0.5,-0.5 Z"/></g>
<g><path style="opacity:1" fill="#fefefe" d="M 472.5,0.5 C 472.5,157.167 472.5,313.833 472.5,470.5C 466.5,470.5 460.5,470.5 454.5,470.5C 463.068,466.426 468.568,459.759 471,450.5C 471.667,308.167 471.667,165.833 471,23.5C 466.803,12.6382 458.97,6.13816 447.5,4C 307.167,3.33333 166.833,3.33333 26.5,4C 15,7.5 7.5,15 4,26.5C 3.33333,167.167 3.33333,307.833 4,448.5C 6.39253,458.71 12.2259,466.044 21.5,470.5C 14.5,470.5 7.5,470.5 0.5,470.5C 0.5,313.833 0.5,157.167 0.5,0.5C 157.833,0.5 315.167,0.5 472.5,0.5 Z"/></g>
<g><path style="opacity:1" fill="#31b235" d="M 454.5,470.5 C 310.167,470.5 165.833,470.5 21.5,470.5C 12.2259,466.044 6.39253,458.71 4,448.5C 3.33333,307.833 3.33333,167.167 4,26.5C 7.5,15 15,7.5 26.5,4C 166.833,3.33333 307.167,3.33333 447.5,4C 458.97,6.13816 466.803,12.6382 471,23.5C 471.667,165.833 471.667,308.167 471,450.5C 468.568,459.759 463.068,466.426 454.5,470.5 Z"/></g>
<g><path style="opacity:1" fill="#fcfdfd" d="M 238.5,180.5 C 239.75,182.932 241.25,185.266 243,187.5C 248.901,193.645 254.568,199.978 260,206.5C 260.816,207.823 261.983,208.489 263.5,208.5C 271.224,218.735 279.557,228.569 288.5,238C 287.295,239.376 285.962,240.542 284.5,241.5C 272.879,240.376 261.213,240.209 249.5,241C 247.782,241.346 246.115,241.846 244.5,242.5C 242.925,241.544 241.258,240.877 239.5,240.5C 230.844,229.846 221.844,219.512 212.5,209.5C 210.706,207.203 208.706,205.037 206.5,203C 178.5,202.333 150.5,202.333 122.5,203C 98.4544,210.261 89.2877,226.095 95,250.5C 100.154,262.32 108.987,269.82 121.5,273C 150.172,273.833 178.839,273.667 207.5,272.5C 208.855,270.479 210.521,268.812 212.5,267.5C 221.506,276.506 230.173,285.84 238.5,295.5C 234.08,299.091 230.08,303.257 226.5,308C 189.5,308.667 152.5,308.667 115.5,308C 80.6585,300.66 60.3252,279.494 54.5,244.5C 53.8337,209.019 69.8337,184.519 102.5,171C 106.5,170 110.5,169 114.5,168C 151.838,167.167 189.171,167.333 226.5,168.5C 230.263,172.93 234.263,176.93 238.5,180.5 Z"/></g>
<g><path style="opacity:1" fill="#6364ac" d="M 420.5,248.5 C 413.668,279.169 395.001,298.669 364.5,307C 326.191,308.61 287.857,308.943 249.5,308C 245.943,303.708 242.277,299.541 238.5,295.5C 230.173,285.84 221.506,276.506 212.5,267.5C 204.387,257.547 196.053,247.714 187.5,238C 195.685,228.318 204.019,218.818 212.5,209.5C 221.844,219.512 230.844,229.846 239.5,240.5C 247.16,249.493 255.16,258.16 263.5,266.5C 264.794,268.907 266.461,271.074 268.5,273C 297.868,273.951 327.201,273.617 356.5,272C 377.608,263.958 385.775,248.791 381,226.5C 375.593,213.858 366.093,206.024 352.5,203C 324.5,202.333 296.5,202.333 268.5,203C 266.7,204.812 265.033,206.645 263.5,208.5C 261.983,208.489 260.816,207.823 260,206.5C 254.568,199.978 248.901,193.645 243,187.5C 241.25,185.266 239.75,182.932 238.5,180.5C 241.806,176.084 245.473,171.917 249.5,168C 285.833,167.333 322.167,167.333 358.5,168C 389.632,173.467 409.798,191.3 419,221.5C 420.264,230.454 420.764,239.454 420.5,248.5 Z"/></g>
<g><path style="opacity:1" fill="#32af36" d="M 263.5,266.5 C 270.899,258.44 277.899,250.107 284.5,241.5C 285.962,240.542 287.295,239.376 288.5,238C 279.557,228.569 271.224,218.735 263.5,208.5C 265.033,206.645 266.7,204.812 268.5,203C 296.5,202.333 324.5,202.333 352.5,203C 366.093,206.024 375.593,213.858 381,226.5C 385.775,248.791 377.608,263.958 356.5,272C 327.201,273.617 297.868,273.951 268.5,273C 266.461,271.074 264.794,268.907 263.5,266.5 Z"/></g>
<g><path style="opacity:1" fill="#34b137" d="M 212.5,209.5 C 204.019,218.818 195.685,228.318 187.5,238C 196.053,247.714 204.387,257.547 212.5,267.5C 210.521,268.812 208.855,270.479 207.5,272.5C 178.839,273.667 150.172,273.833 121.5,273C 108.987,269.82 100.154,262.32 95,250.5C 89.2877,226.095 98.4544,210.261 122.5,203C 150.5,202.333 178.5,202.333 206.5,203C 208.706,205.037 210.706,207.203 212.5,209.5 Z"/></g>
<g><path style="opacity:1" fill="#e2e8e3" d="M 239.5,240.5 C 241.258,240.877 242.925,241.544 244.5,242.5C 246.115,241.846 247.782,241.346 249.5,241C 261.213,240.209 272.879,240.376 284.5,241.5C 277.899,250.107 270.899,258.44 263.5,266.5C 255.16,258.16 247.16,249.493 239.5,240.5 Z"/></g>
<g><path style="opacity:1" fill="#30ab34" d="M 54.5,244.5 C 60.3252,279.494 80.6585,300.66 115.5,308C 152.5,308.667 189.5,308.667 226.5,308C 230.08,303.257 234.08,299.091 238.5,295.5C 242.277,299.541 245.943,303.708 249.5,308C 287.857,308.943 326.191,308.61 364.5,307C 395.001,298.669 413.668,279.169 420.5,248.5C 420.318,277.712 407.651,299.545 382.5,314C 374.918,317.749 366.918,320.083 358.5,321C 322.167,321.667 285.833,321.667 249.5,321C 246.019,316.352 242.019,312.185 237.5,308.5C 233.647,312.518 229.981,316.685 226.5,321C 189.833,321.667 153.167,321.667 116.5,321C 75.1043,312.405 54.4377,286.905 54.5,244.5 Z"/></g>
</svg>
